<svg width="369" height="324" viewBox="0 0 369 324" fill="none" xmlns="http://www.w3.org/2000/svg">
<path d="M327.41 14.7183C272.941 -39.6109 184.614 -39.6109 130.514 14.7183C92.4229 52.4725 81.014 106.802 95.7352 154.685L9.24835 241.243C3.17587 247.505 -1.05647 259.844 0.231632 268.684L5.75207 308.833C7.77623 322.093 20.1052 334.616 33.3543 336.458L73.4694 341.983C82.3021 343.272 94.6311 339.22 100.888 332.774L115.977 317.673C119.657 314.173 119.657 308.28 115.977 304.597L80.278 268.868C74.9416 263.527 74.9416 254.688 80.278 249.347C85.6144 244.006 94.4471 244.006 99.7835 249.347L135.666 285.259C139.163 288.758 145.051 288.758 148.547 285.259L187.558 246.4C235.218 261.317 289.503 249.715 327.41 211.961C381.694 157.632 381.694 69.0475 327.41 14.7183ZM230.066 158C204.672 158 184.062 137.373 184.062 111.958C184.062 86.5433 204.672 65.9167 230.066 65.9167C255.46 65.9167 276.069 86.5433 276.069 111.958C276.069 137.373 255.46 158 230.066 158Z" fill="white" fill-opacity="0.1"/>
</svg>
